<svg width="520" height="365" viewBox="0 0 520 365" fill="none" xmlns="http://www.w3.org/2000/svg">
<path d="M192.985 0.198643C181.423 -0.337276 169.835 0.211791 158.375 1.83864C116.965 7.96864 74.3752 25.3886 44.0052 54.7186C32.0052 66.2986 22.0053 79.9987 15.6453 95.4787C0.97526 131.349 -6.66474 168.559 7.56526 205.639C24.8153 250.579 49.8653 291.909 91.9853 317.249C139.755 345.989 196.165 358.019 251.195 362.249C299.555 365.959 348.845 367.079 396.275 355.249C436.375 345.249 476.425 322.879 498.455 286.429C517.575 254.859 522.375 209.779 517.205 173.609C517.205 173.609 507.055 125.949 453.145 85.3286C416.995 58.0786 370.095 44.0386 327.415 30.8586C285.855 18.0186 238.475 2.07864 192.985 0.198643Z" fill="#95BC9D"/>
</svg>
