<svg width="446" height="432" viewBox="0 0 446 432" fill="none" xmlns="http://www.w3.org/2000/svg">
<path d="M235.684 38.4122C226.384 33.6922 216.554 30.0322 207.384 25.0522C196.674 19.2422 187.694 9.7922 176.134 5.6822C163.304 1.1222 148.784 1.50225 135.374 0.422251C119.714 -0.827749 104.154 0.622237 90.1044 5.78224C57.5644 17.7822 29.1944 35.4922 16.4244 68.5622C4.12441 100.402 -3.04559 134.642 1.25441 168.822C5.25441 200.692 14.7044 238.912 29.3444 267.522C44.4644 297.062 71.1244 322.202 94.4044 345.292C115.084 365.802 137.334 384.902 161.924 400.572C196.534 422.632 238.784 436.912 276.924 429.772C309.984 423.592 351.284 416.062 377.424 388.842C377.424 388.842 457.614 293.232 444.424 230.012C435.574 187.612 415.854 144.492 393.694 106.242C381.314 84.8822 349.344 78.2422 327.554 72.2422C297.024 63.9122 268.264 56.6822 240.474 40.9322C238.894 40.0655 237.298 39.2256 235.684 38.4122Z" fill="#95BC9D"/>
</svg>
