<svg width="504" height="449" viewBox="0 0 504 449" fill="none" xmlns="http://www.w3.org/2000/svg">
<path d="M103.43 24.9668C103.43 24.9668 42.52 54.6768 29.75 87.7468C17.45 119.587 0 198.297 0 198.297C0 198.297 28 258.097 42.68 286.707C57.79 316.247 84.45 341.387 107.74 364.477C128.42 384.987 175.26 419.757 175.26 419.757L290.26 448.957C290.26 448.957 364.61 435.247 390.75 408.027C390.75 408.027 503.87 274.717 503.87 242.727C503.87 210.737 498.54 122.727 498.54 122.727C498.54 122.727 379.46 18.7268 345.69 3.65676C311.92 -11.4132 103.43 24.9668 103.43 24.9668Z" fill="#95BC9D"/>
</svg>
